<svg xmlns="http://www.w3.org/2000/svg" viewBox="0 0 805.55 842.45"><defs><style>.cls-1{fill:#fff;}</style></defs><g id="Capa_2" data-name="Capa 2"><g id="Capa_1-2" data-name="Capa 1"><path class="cls-1" d="M439.35,219.6c.72.06,1.44.17,2.16.17,22.7,0,45.4,0,68.1.06,2.5,0,3.23-.67,3.19-3.18-.14-9.9-.06-19.8-.06-29.69v-3.64h36.59V256.4h36.82c0,12.47,0,24.69,0,36.9a12.46,12.46,0,0,0-1.61-.22H551.07a7.56,7.56,0,0,0-1.44.25v36.16h36.43V293.22l32.68-.15h3.83V256.6H732.46v36.3H769V256.63h36.54v72.9H769.16v36.72H695.91v35.91c-.46.36-.6.56-.74.56q-18.09,0-36.2,0,.07-17.82.13-35.63c0-.16-.15-.31-.32-.63H586.2v36.44h69.87c1,0,2-.16,3-.24q.11,12.93.2,25.87c0,2.81-.11,5.63,0,8.44.11,2-.54,2.66-2.59,2.64-10.26-.09-20.53,0-30.79,0h-3.13V549.32H659v36.57H622.78v36.63c.93.05,1.81.13,2.69.14,22.44,0,44.87,0,67.3.05,2.52,0,3.22-.69,3.18-3.19-.13-10.08-.05-20.16-.05-30.24v-3.23h36.36v-36.6H696V512.81h-36.6V476.4h73.09v36.42h36.66l-.08-.07V586h36.48v73.11H769.17V623a7.13,7.13,0,0,0-1.31-.29c-11.08,0-22.16,0-33.24-.05-1.43,0-2.15.34-2.15,2q.07,35.14.08,70.29a4.41,4.41,0,0,0,.23.88h36.28v36.68h36.41V842.2H622.78V805.82H659V769.13H622.72V732.54H659c.08-1.25.17-2.13.18-3,0-10.36,0-20.71,0-31.06a16.67,16.67,0,0,0-.51-2.86,20.26,20.26,0,0,0,2.43.26q16.33,0,32.67,0c.61,0,1.21-.11,1.93-.18V659.49H659.23v3.15c0,10.07,0,20.15,0,30.22a16,16,0,0,1-.49,2.79c-1.17.08-2.34.23-3.51.23H586V769h-36.4v36.7h36.2v36.43h-73v-73H476.21V732.74H439.6V769H403v73.2H366.36V769.31H293.12v72.85H256.55V512.83h35.88c.28-.5.44-.65.44-.8q.06-17.29.08-34.59a3,3,0,0,0-.39-1l-.06,0a24.23,24.23,0,0,1,2.68-.34h68.64c.71,0,1.42.1,2.38.18v36.18h36.49V439.63H329.88V403H366V366.38H329.93V329.86h72.85v73h36.69V549.2H476V512.82h36.76V509.3c0-9.9,0-19.8,0-29.7a26.47,26.47,0,0,1,.39-3.16,6.56,6.56,0,0,1,1.31-.24q16.49,0,33,0a16.68,16.68,0,0,1,2.08.3v72.73h36.32V439.75H513a11,11,0,0,0-.19,1.42q0,16.62,0,33.24a10.42,10.42,0,0,0,.42,2.1,34.5,34.5,0,0,0-3.5-.33c-10.08,0-20.16,0-30.25,0h-3.34V366.31H439.42V293.13l-.07.06q17.37-.06,34.75-.1a8.6,8.6,0,0,1,1.57.27,21.88,21.88,0,0,1,.39,2.88q0,15,0,29.95v3.29h36.46V293.16c-12.19,0-24.15,0-36.12,0a2.86,2.86,0,0,0-.78.22,13.76,13.76,0,0,0,.44-2.34q0-16.17,0-32.34a22.06,22.06,0,0,0-.24-2.27H469.5l-30.14.18.06.06V219.54ZM549.64,659.54c1-.08,2-.23,3-.24h33.14V622.83c-.68-.07-1.12-.16-1.57-.16q-16.49,0-33,0a10.64,10.64,0,0,0-1.83.32v-36.8H512.92v36.43H516c9.9,0,19.8,0,29.7,0,1.25,0,2.51.17,3.77.25q0,17.28,0,34.56a16.83,16.83,0,0,0,.27,2.12,10.94,10.94,0,0,0-1.86-.31q-16.61,0-33.23,0a13.4,13.4,0,0,0-1.63.22v36.15H549.4c0-8.39,0-16.55,0-24.71C549.43,667.14,549.56,663.34,549.64,659.54Zm-183.12-.31v36.48H475.86V586.19H402.81v73ZM329.64,586h-3.13c-10.26,0-20.52.06-30.77,0-2.15,0-2.79.6-2.77,2.76.1,10.25.12,20.51,0,30.77,0,2.44.57,3.24,3.14,3.23,22.42-.11,44.84-.06,67.26-.07.88,0,1.76-.1,2.73-.16V549.57H329.64ZM696.11,732.64v72.94h72.78V769H732.38V732.64ZM293.22,659.4v72.85h36.25V659.4ZM695.7,329.58V293.29H659.5v36.29ZM513,366.42v36.26h36.22V366.42Z"/><path class="cls-1" d="M439.35,36.49l32.67.17c1.25,0,2.5,0,4.06,0v33.2c0,3.47,0,3.48,3.6,3.48h69.56v73H512.87V110.15H476.1V183.1H439.35c0-.45.11-.9.11-1.35q0-34.73,0-69.44a20.37,20.37,0,0,0-.21-2.14H403.07V183h36.36q0,18.28-.08,36.58l.07-.06c-1,.08-2,.23-3,.23q-15.12,0-30.25,0h-3.37v36.91l.07-.07H366.36V293h-73.3V329.5H256.51V256.44h4.15c22,0,43.94-.05,65.91.05,2.55,0,3.18-.74,3.16-3.2-.07-11.26.06-22.51.11-33.76a10.91,10.91,0,0,0,1.59.24q16.21,0,32.42,0c.7,0,1.4-.12,2.2-.18V183.31H329.67c0,3.4,0,6.64,0,9.88q.1,13.2.23,26.4l-25.31.19c-2.91,0-5.82-.13-8.72,0-2.23.13-3-.58-2.94-2.87.12-10.08.05-20.16.05-30.23v-3.47H256.6V36.83c.92,0,2-.16,3-.16,9.8,0,19.61,0,29.41,0,1.26,0,2.52-.16,3.78-.24.07,1.18.2,2.35.2,3.52q0,15,0,30v3.19a12.4,12.4,0,0,0,1.42.24c11.07,0,22.14,0,33.21.05,2.11,0,2.05-1.17,2.05-2.62,0-8.8,0-17.6,0-26.4,0-2.43.7-5.72-.56-7s-4.56-.62-7-.64c-9.8-.1-19.59-.14-29.38-.2.07-3,.21-6,.22-8.95q0-12.53,0-25c0-1.58.23-2.48,2.2-2.47Q330,.11,364.8.07a11.69,11.69,0,0,1,1.41.21V36.07c.51.3.66.47.81.47l35.89,0-.07-.07V73.11h36.58V36.43ZM293.2,146.38h72.87V110.11H293.2Z"/><path class="cls-1" d="M.18,220.46V.19c1.1,0,2.07-.13,3-.13Q112.89,0,222.55,0c2.51,0,3.17.69,3.17,3.19q-.1,107.07-.06,214.15v3.12ZM42.09,42V178.42H183.47V42Z"/><path class="cls-1" d="M0,621.93H225.66v3q0,107.2.06,214.42c0,2.38-.59,3.07-3,3.07q-109.8-.11-219.6,0c-2.62,0-3.1-.86-3.1-3.25Q.09,732.11,0,625ZM183.69,800.42v-37.5q0-48.09,0-96.19c0-1.77,0-3-2.5-3q-68.52.13-137,.09a16.05,16.05,0,0,0-2,.22v136.4Z"/><path class="cls-1" d="M805.51,220.56h-225V.27h225Zm-41.92-42.05V42.12H622.27V178.51Z"/><path class="cls-1" d="M292.56,476.47c-1.07-.1-2.13-.28-3.2-.29-9.9,0-19.8,0-29.69,0h-3.2V439.81H219.82v36.28H183.33V512.7l.08-.08-33.49.16h-3.3V549.2H109.86v-73H73.12l.08.07V402.88H70c-7.53,0-15.05,0-22.58,0-3.61,0-7.23-.15-10.84-.23l.08.05v-36.3H.27V329.76H36.53V293.27H73.24v72.92h36.45c.07,1.32.16,2.36.16,3.4,0,22.25.05,44.49,0,66.74,0,2.67.78,3.3,3.36,3.28,22.25-.1,44.49-.05,66.74-.05h3.25V402.92h36.61v-3.43q0-15.11,0-30.23c0-1.09.12-2.17.18-3.25l-.09.08c.9.06,1.8.17,2.7.17H292.8c.08,1.16.2,2.11.2,3.06q0,52.29,0,104.58a13.56,13.56,0,0,1-.49,2.62Z"/><path class="cls-1" d="M73.12,476.23v36.51H36.72v36.41H.24V402.89H33.45c1.08,0,2.16-.12,3.25-.19l-.08-.05v73.53h4.22l32.36.13Z"/><path class="cls-1" d="M219.94,366c-2.44.08-4.88.24-7.32.25-8.71,0-17.43,0-26.14,0h-3.27V329.65H146.67V293.27h73.17q0,36.39,0,72.82Z"/><path class="cls-1" d="M732.62,439.32V403.06H769v36.26Z"/><path class="cls-1" d="M402.91,36.49V.23h36.44V36.49l.07-.06c-9,.08-18.08.18-27.11.22-3.16,0-6.31-.15-9.47-.23Z"/><path class="cls-1" d="M769.13,512.82V476.41h36.36v36.34H769.05Z"/><path class="cls-1" d="M183.33,512.7H219.6v36.43H183.43a8.51,8.51,0,0,1-.23-1.44q0-16.73,0-33.46a11.12,11.12,0,0,1,.22-1.61Z"/><path class="cls-1" d="M439.42,293.13H402.91V256.62l-.07.07c6.23-.09,12.47-.23,18.7-.24,6,0,11.92.15,17.88.23l-.06-.06v36.57Z"/><path class="cls-1" d="M150.14,73v74.71H75.4V73Z"/><path class="cls-1" d="M150.17,694.74v74.73H75.51V694.74Z"/><path class="cls-1" d="M730.35,72.94v74.8H655.69V72.94Z"/></g></g></svg>