<svg width="521" height="169" viewBox="0 0 521 169" fill="none" xmlns="http://www.w3.org/2000/svg">
<g clip-path="url(#clip0_10_1919)">
<path d="M260.627 120.901C346.825 120.901 433.023 120.901 519.221 120.901C520.391 120.901 520.976 121.499 520.976 122.693C520.976 137.5 520.967 152.307 521 167.114C521 168.151 520.825 168.5 519.669 168.5C346.901 168.467 174.132 168.467 1.35884 168.5C0.240494 168.5 -0.000164036 168.203 0.00455474 167.128C0.0423049 152.198 0.0470237 137.264 -0.00488281 122.335C-0.00488281 121.066 0.396213 120.883 1.53344 120.883C80.3417 120.911 159.15 120.906 237.954 120.906C245.508 120.906 253.068 120.906 260.623 120.906L260.627 120.901ZM73.0087 144.691C73.004 153.302 80.0114 160.219 88.7553 160.234C97.4614 160.248 104.606 153.269 104.61 144.753C104.615 136.184 97.5322 129.215 88.8166 129.22C80.0208 129.22 73.0182 136.081 73.0087 144.691ZM228.978 144.861C229.011 136.166 222.018 129.234 213.204 129.215C204.507 129.201 197.438 136.067 197.382 144.578C197.325 153.151 204.356 160.177 213.048 160.229C221.796 160.285 228.95 153.387 228.983 144.861H228.978ZM235.731 128.691V156.273C235.731 159.484 235.731 159.437 238.973 159.484C239.983 159.498 240.204 159.182 240.2 158.225C240.157 152.297 240.181 146.37 240.181 140.438C240.181 140.046 240.181 139.655 240.181 139.217C247.268 146.549 254.724 153.278 261.934 160.375C262.26 159.767 262.142 159.309 262.142 158.871C262.151 150.246 262.147 141.626 262.147 133.001C262.147 129.894 262.147 129.941 259.094 129.875C258.032 129.851 257.687 130.078 257.697 131.219C257.763 137.024 257.73 142.829 257.721 148.629C257.721 149.058 257.857 149.52 257.57 149.963C250.605 142.711 243.144 136.019 235.736 128.687L235.731 128.691ZM376.483 139.198C383.575 146.549 391.04 153.274 398.463 160.583V132.954C398.463 129.903 398.463 129.951 395.466 129.88C394.4 129.856 394.065 130.092 394.074 131.224C394.14 137.029 394.107 142.833 394.098 148.643C394.098 149.077 394.221 149.539 393.952 150.034C386.93 142.744 379.456 135.996 372.042 128.701C372.042 129.526 372.042 129.969 372.042 130.413V156.537C372.042 159.46 372.042 159.399 374.93 159.489C376.152 159.526 376.535 159.258 376.516 157.951C376.435 151.741 376.478 145.526 376.478 139.202L376.483 139.198ZM472.307 159.451C471.939 158.913 471.731 158.574 471.491 158.258C468.64 154.49 465.781 150.732 462.954 146.945C462.732 146.648 461.864 146.172 463.016 145.842C467.314 144.621 468.867 142.621 468.99 138.207C469.117 133.718 466.583 130.705 462.147 130.101C459.217 129.701 456.263 130.026 453.323 129.88C452.276 129.828 452.026 130.167 452.03 131.191C452.073 139.438 452.054 147.681 452.054 155.928C452.054 159.63 452.054 159.606 455.725 159.474C456.452 159.446 456.645 159.201 456.631 158.522C456.593 157.032 456.622 155.537 456.622 154.047C456.622 151.727 456.622 149.407 456.626 147.087C456.626 146.818 456.508 146.455 456.876 146.337C457.226 146.229 457.367 146.563 457.542 146.78C457.702 146.974 457.844 147.176 457.99 147.374C460.788 151.128 463.582 154.886 466.385 158.64C466.649 158.993 466.828 159.456 467.395 159.456C468.952 159.451 470.509 159.456 472.302 159.456L472.307 159.451ZM155.474 140.9C155.474 138 155.484 135.76 155.474 133.52C155.465 132.365 155.856 130.832 155.271 130.163C154.587 129.38 153.006 130.04 151.826 129.894C150.817 129.767 150.685 130.229 150.694 131.096C150.741 134.331 150.746 137.561 150.703 140.796C150.666 143.776 150.911 146.766 150.543 149.737C150.057 153.637 147.745 155.726 143.819 155.815C139.293 155.919 136.821 154.103 136.132 150.1C135.986 149.251 135.995 148.365 135.99 147.497C135.976 142.852 136.004 138.212 135.971 133.567C135.962 132.379 136.509 130.818 135.731 130.106C134.971 129.408 133.433 129.965 132.239 129.903C132.154 129.903 132.074 129.913 131.989 129.903C131.422 129.837 131.163 130.035 131.172 130.653C131.267 137.326 130.932 144.003 131.356 150.671C131.654 155.32 134.334 158.522 138.652 159.658C141.417 160.385 144.234 160.455 147.037 159.871C151.968 158.843 154.606 156.004 155.266 151.038C155.743 147.445 155.328 143.833 155.479 140.895L155.474 140.9ZM428.819 144.564C428.819 149.166 428.842 153.769 428.8 158.366C428.79 159.248 429.059 159.484 429.923 159.474C433.99 159.432 438.058 159.456 442.121 159.456C445.353 159.456 445.32 159.456 445.311 156.192C445.311 155.292 444.999 155.089 444.164 155.098C440.969 155.141 437.775 155.098 434.58 155.127C433.825 155.136 433.566 154.9 433.58 154.136C433.618 151.609 433.618 149.081 433.58 146.549C433.57 145.785 433.825 145.554 434.58 145.564C437.152 145.601 439.724 145.578 442.3 145.578C445.325 145.578 445.287 145.578 445.315 142.532C445.325 141.617 445.098 141.32 444.145 141.339C440.993 141.4 437.836 141.329 434.684 141.381C433.802 141.395 433.547 141.122 433.575 140.259C433.637 138.519 433.632 136.779 433.575 135.039C433.552 134.204 433.863 133.978 434.656 133.992C437.227 134.029 439.799 134.006 442.376 134.006C445.334 134.006 445.301 134.006 445.311 130.988C445.311 130.12 445.075 129.87 444.202 129.88C439.431 129.922 434.656 129.922 429.885 129.88C428.984 129.87 428.79 130.163 428.8 131.007C428.838 135.524 428.819 140.042 428.819 144.559V144.564ZM348.821 144.569C348.821 149.171 348.845 153.769 348.802 158.371C348.793 159.258 349.067 159.479 349.925 159.47C353.993 159.427 358.056 159.451 362.123 159.451C365.346 159.451 365.313 159.451 365.313 156.197C365.313 155.311 365.04 155.08 364.181 155.094C361.029 155.141 357.872 155.089 354.72 155.127C353.894 155.136 353.545 154.948 353.568 154.037C353.625 151.552 353.625 149.063 353.568 146.577C353.549 145.719 353.87 145.549 354.649 145.564C357.178 145.606 359.712 145.578 362.241 145.578C365.332 145.578 365.285 145.578 365.318 142.475C365.328 141.475 364.959 141.334 364.091 141.348C360.939 141.395 357.782 141.339 354.63 141.386C353.823 141.395 353.54 141.178 353.568 140.348C353.625 138.608 353.625 136.863 353.568 135.128C353.54 134.27 353.8 133.973 354.682 133.992C357.211 134.044 359.745 134.011 362.274 134.011C365.332 134.011 365.294 134.011 365.309 130.974C365.309 130.083 365.04 129.875 364.186 129.885C359.457 129.922 354.724 129.936 349.996 129.875C348.958 129.861 348.793 130.219 348.802 131.139C348.845 135.614 348.821 140.094 348.821 144.569ZM341.568 137C341.663 135.567 341.71 134.336 341.842 133.119C341.918 132.431 341.63 132.073 341.078 131.733C337.298 129.418 333.235 128.64 328.899 129.545C321.084 131.177 316.281 137.481 316.682 145.757C316.96 151.505 319.65 155.952 324.864 158.484C330.239 161.097 335.684 160.96 340.927 157.876C341.243 157.692 341.583 157.522 341.578 157.055C341.564 155.499 341.578 153.938 341.578 152.071C338.766 154.344 335.84 155.678 332.452 155.773C328.946 155.872 326.039 154.627 323.859 151.845C320.74 147.865 320.839 141.263 324.071 137.363C325.581 135.543 327.502 134.364 329.819 133.897C334.155 133.025 338.006 134.185 341.578 137.005L341.568 137ZM58.0549 160.229C58.8571 160.3 59.7584 160.125 60.655 159.96C64.2035 159.319 66.8177 156.82 67.5397 153.439C68.3891 149.459 67.2849 146.667 63.9628 144.413C62.4481 143.385 60.7824 142.635 59.1355 141.853C57.7388 141.192 56.3939 140.443 55.3888 139.24C53.926 137.491 54.379 134.973 56.3184 133.902C57.9794 132.987 60.3624 133.266 61.8252 134.454C62.3821 134.907 62.5897 135.935 63.4202 135.817C64.1186 135.718 64.7603 135.194 65.4257 134.859C65.6852 134.727 65.9259 134.548 66.1948 134.454C66.8649 134.213 66.8083 133.827 66.5299 133.299C65.7701 131.837 64.6235 130.799 63.1276 130.153C61.0183 129.238 58.8147 129.078 56.5449 129.371C53.2182 129.804 50.571 132.002 49.7452 135.1C48.8533 138.448 49.9198 141.452 52.7605 143.527C54.5772 144.856 56.5827 145.851 58.607 146.813C59.7726 147.365 60.9004 147.997 61.7875 148.959C63.4296 150.737 63.1276 153.599 61.174 154.962C58.8996 156.551 54.9547 155.848 53.3126 153.613C52.9068 153.057 52.9068 152.01 52.2461 151.958C51.5949 151.906 50.8918 152.486 50.2123 152.793C50.0991 152.844 49.9953 152.92 49.8773 152.948C48.6174 153.255 48.6835 154.004 49.094 154.999C50.486 158.352 53.6051 160.219 58.0597 160.229H58.0549ZM277.884 160.234C279.389 160.219 280.876 160.031 282.268 159.456C285.269 158.215 287.048 155.994 287.534 152.76C288.043 149.388 287.1 146.625 284.193 144.649C282.574 143.545 280.814 142.711 279.054 141.876C277.7 141.23 276.393 140.504 275.378 139.367C274.562 138.453 274.161 137.425 274.486 136.166C275.227 133.289 279.238 132.379 281.749 134.496C282.272 134.94 282.485 135.916 283.24 135.826C283.938 135.746 284.58 135.213 285.245 134.878C285.429 134.784 285.608 134.671 285.802 134.6C286.618 134.312 286.75 133.864 286.302 133.1C285.472 131.681 284.306 130.672 282.796 130.064C280.583 129.168 278.271 128.965 275.954 129.451C272.688 130.134 270.357 131.964 269.579 135.326C268.795 138.731 269.796 141.541 272.712 143.588C274.383 144.757 276.166 145.724 278.011 146.582C279.295 147.181 280.545 147.827 281.55 148.855C283.405 150.765 283.023 153.778 280.753 155.146C278.436 156.537 274.689 155.721 273.127 153.528C272.75 152.995 272.759 151.996 272.136 151.944C271.523 151.892 270.858 152.448 270.216 152.736C269.989 152.84 269.772 152.981 269.536 153.038C268.531 153.288 268.536 153.863 268.852 154.707C270.164 158.234 273.382 160.224 277.879 160.224L277.884 160.234ZM168.135 146.705C168.135 149.855 168.135 153.005 168.135 156.155C168.135 159.46 168.135 159.39 171.386 159.493C172.674 159.536 172.948 159.154 172.938 157.918C172.877 150.336 172.929 142.748 172.886 135.166C172.882 134.161 173.179 133.879 174.142 133.94C175.34 134.02 176.548 133.959 177.751 133.959C180.738 133.959 180.696 133.959 180.71 130.969C180.71 130.064 180.418 129.885 179.573 129.889C174.137 129.927 168.706 129.908 163.27 129.908C160.117 129.908 160.15 129.908 160.216 133.03C160.235 133.841 160.547 133.987 161.25 133.973C163.156 133.94 165.067 134.011 166.974 133.94C167.922 133.907 168.168 134.228 168.158 135.147C168.111 139 168.139 142.857 168.139 146.709L168.135 146.705ZM416.087 146.827C416.087 143.055 416.135 139.283 416.059 135.515C416.035 134.317 416.248 133.775 417.588 133.93C418.735 134.062 419.91 133.959 421.07 133.959C423.883 133.959 423.836 133.959 423.897 131.2C423.921 130.191 423.68 129.866 422.613 129.88C417.22 129.936 411.826 129.908 406.433 129.908C403.276 129.908 403.3 129.908 403.403 133.053C403.427 133.765 403.653 133.982 404.347 133.973C406.216 133.94 408.084 134.02 409.948 133.94C411.015 133.893 411.364 134.161 411.354 135.298C411.298 142.178 411.312 149.058 411.34 155.938C411.345 157.074 410.812 158.545 411.595 159.267C412.303 159.918 413.742 159.352 414.846 159.474C415.936 159.597 416.13 159.13 416.116 158.145C416.059 154.372 416.092 150.605 416.092 146.832L416.087 146.827ZM111.368 144.616C111.368 149.218 111.387 153.816 111.349 158.418C111.344 159.234 111.571 159.484 112.392 159.474C116.167 159.437 119.942 159.456 123.717 159.456C126.897 159.456 126.845 159.456 126.892 156.301C126.907 155.249 126.524 155.08 125.604 155.094C122.867 155.146 120.126 155.061 117.389 155.136C116.327 155.164 116.096 154.815 116.105 153.806C116.148 147.049 116.143 140.296 116.115 133.539C116.11 132.355 116.662 130.743 115.865 130.106C115.119 129.512 113.567 129.969 112.373 129.88C111.533 129.818 111.339 130.134 111.344 130.931C111.377 135.491 111.363 140.051 111.363 144.606L111.368 144.616ZM185.698 144.71C185.698 148.44 185.674 152.165 185.712 155.895C185.721 157.041 185.193 158.527 185.948 159.239C186.689 159.941 188.166 159.347 189.308 159.47C190.284 159.573 190.568 159.239 190.563 158.244C190.525 149.213 190.53 140.183 190.558 131.158C190.558 130.238 190.407 129.771 189.355 129.889C188.539 129.984 187.694 129.969 186.873 129.889C185.948 129.8 185.67 130.097 185.679 131.045C185.731 135.6 185.703 140.155 185.703 144.715L185.698 144.71Z" fill="#F5BA1D"/>
<path d="M72.6315 60.1325C73.226 58.9584 73.3959 57.7653 73.6979 56.6195C78.3129 39.2192 82.9184 21.8189 87.472 4.39972C87.7835 3.21141 88.2601 2.88132 89.4633 2.88604C101.836 2.9332 114.209 2.9332 126.581 2.88604C127.619 2.88604 127.893 3.23499 128.035 4.15923C130.781 21.6303 133.546 39.0966 136.325 56.5629C139.02 73.4963 141.733 90.4251 144.446 107.359C144.791 109.499 144.81 109.495 142.663 109.495C131.206 109.495 119.744 109.481 108.287 109.518C107.324 109.518 107.022 109.226 106.937 108.316C105.932 98.0878 104.908 87.8598 103.87 77.6366C102.884 67.9084 101.874 58.1803 100.873 48.4144C100.477 48.6927 100.486 49.1218 100.387 49.4943C94.989 68.9977 89.5813 88.4964 84.2255 108.009C83.9046 109.174 83.4563 109.542 82.2389 109.528C75.5571 109.462 68.8706 109.471 62.1841 109.523C61.1932 109.532 60.8534 109.188 60.608 108.297C55.2145 88.7086 49.7926 69.125 44.3755 49.5462C44.2669 49.1595 44.1442 48.7775 43.8611 48.4144C43.4459 52.4839 43.0306 56.5582 42.6154 60.6277C41.8179 68.4177 41.0204 76.2125 40.2277 84.0025C39.5293 90.8872 38.8309 97.7766 38.1325 104.661C38.0759 105.237 38.0051 105.817 37.9391 106.392C37.8258 107.406 38.1514 108.806 37.4341 109.32C36.7452 109.82 35.4428 109.49 34.4094 109.49C23.3675 109.495 12.3208 109.485 1.27889 109.509C0.382326 109.509 0.0189806 109.466 0.217169 108.344C2.22737 96.8806 4.16206 85.4077 6.12036 73.9349C8.23437 61.566 10.3531 49.1972 12.4624 36.8284C14.3216 25.9308 16.1808 15.0285 18.0164 4.12622C18.1721 3.20198 18.4835 2.88132 19.4981 2.88604C31.748 2.9332 43.9932 2.93791 56.2432 2.88132C57.3474 2.87661 57.6022 3.31044 57.8428 4.2111C62.7504 22.8186 67.6768 41.4166 72.6362 60.1325H72.6315Z" fill="white"/>
<path d="M209.542 56.1432C209.542 38.8467 209.552 21.5548 209.519 4.2583C209.519 3.19731 209.721 2.88608 210.849 2.8908C222.807 2.95682 234.764 2.84836 246.721 3.00397C256.107 3.12658 265.559 3.5604 274.538 6.4746C294.367 12.9113 307.018 26.1525 310.665 46.9385C313.195 61.3444 310.698 74.9911 301.766 86.9214C293.333 98.1773 282.074 105.076 268.135 107.5C258.032 109.254 247.83 109.48 237.614 109.499C228.686 109.513 219.758 109.476 210.835 109.537C209.679 109.546 209.519 109.188 209.519 108.16C209.552 90.8258 209.542 73.4869 209.542 56.1526V56.1432ZM247.632 56.2233C247.632 62.7732 247.646 69.3231 247.613 75.8776C247.613 76.7264 247.792 77.0047 248.698 76.9811C252.488 76.8773 256.225 76.4859 259.868 75.3919C266.502 73.3973 270.612 69.0826 271.976 62.2545C272.637 58.9348 272.698 55.5868 272.292 52.2293C271.287 43.8734 266.493 38.5118 258.339 36.6351C255.21 35.9136 252.021 35.7957 248.821 35.7014C247.802 35.6731 247.604 35.9985 247.608 36.9463C247.646 43.3736 247.627 49.8008 247.627 56.2233H247.632Z" fill="white"/>
<path d="M310.241 109.41C312.459 103.204 314.644 97.0928 316.828 90.9814C327.162 62.0329 337.501 33.089 347.807 4.13569C348.142 3.1973 348.548 2.89551 349.553 2.89551C362.959 2.93323 376.37 2.92852 389.776 2.90494C390.621 2.90494 391.074 3.06998 391.39 3.97065C403.536 38.7712 415.71 73.5576 427.885 108.349C428.007 108.693 428.106 109.047 428.248 109.499H427.064C414.111 109.499 401.162 109.49 388.209 109.523C387.303 109.523 386.93 109.278 386.718 108.391C385.826 104.647 384.835 100.926 383.939 97.1871C383.731 96.31 383.358 96.0459 382.448 96.0506C373.605 96.0884 364.762 96.0931 355.923 96.0506C354.923 96.0459 354.593 96.3854 354.385 97.2955C353.507 101.082 352.535 104.85 351.643 108.636C351.497 109.264 351.294 109.523 350.605 109.523C337.28 109.499 323.954 109.504 310.628 109.499C310.548 109.499 310.467 109.466 310.241 109.419V109.41ZM369.145 40.2707C369.037 40.4169 368.924 40.5018 368.895 40.6102C366.361 50.3761 363.837 60.1467 361.298 69.9125C361.109 70.6434 361.435 70.7236 362.048 70.7236C366.739 70.7047 371.425 70.7047 376.115 70.7236C376.809 70.7236 377.054 70.6434 376.842 69.8323C374.261 60.0005 371.717 50.1592 369.15 40.2707H369.145Z" fill="white"/>
<path d="M507.65 38.0734C503.37 34.9847 498.92 32.4619 493.928 30.9907C490.101 29.8684 486.222 29.3685 482.254 30.0853C481.013 30.3116 479.861 30.7738 478.889 31.599C476.926 33.2683 476.893 35.7015 478.818 37.4038C480.239 38.6581 481.961 39.3937 483.712 40.0586C488.303 41.8034 493.135 42.6286 497.882 43.7792C507.023 45.9955 514.153 50.876 518.319 59.529C520.797 64.6831 521.264 70.1626 520.867 75.7882C519.49 95.2161 504.564 107.212 489.341 110.711C476.251 113.72 463.379 112.447 450.704 108.363C444.848 106.477 439.284 103.921 433.891 100.983C433.122 100.564 432.957 100.215 433.306 99.3705C437.142 90.1187 440.95 80.8621 444.706 71.5772C445.122 70.5539 445.424 70.7143 446.146 71.2094C451.534 74.8828 457.084 78.2638 463.379 80.2066C467.097 81.3572 470.877 82.0127 474.784 81.3714C476.11 81.1544 477.351 80.7065 478.436 79.8954C480.994 77.9809 481.046 74.7838 478.512 72.8504C476.181 71.0726 473.401 70.337 470.617 69.6768C466.148 68.6159 461.585 67.918 457.291 66.1732C449.184 62.8818 442.989 57.624 440.238 49.0747C436.694 38.0498 438.695 21.5832 451.388 10.9827C458.329 5.18732 466.361 2.07978 475.242 1.00464C490.592 -0.853273 504.894 2.5702 518.442 9.70479C519.093 10.049 519.343 10.3037 519.008 11.1053C515.295 19.9139 511.633 28.7414 507.952 37.5641C507.891 37.715 507.787 37.8518 507.66 38.0734H507.65Z" fill="white"/>
<path d="M194.399 56.3553C194.399 73.6094 194.385 90.8635 194.427 108.118C194.427 109.259 194.13 109.528 193.007 109.523C180.922 109.48 168.842 109.485 156.757 109.523C155.771 109.523 155.441 109.358 155.441 108.273C155.474 73.5576 155.474 38.8419 155.446 4.1215C155.446 3.1501 155.686 2.89546 156.663 2.89546C168.828 2.92847 180.993 2.93319 193.163 2.89075C194.258 2.89075 194.423 3.23498 194.418 4.21581C194.39 21.5972 194.394 38.9739 194.394 56.3553H194.399Z" fill="white"/>
<path d="M73.009 144.691C73.0138 136.076 80.0211 129.224 88.8169 129.22C97.5325 129.22 104.615 136.185 104.611 144.753C104.606 153.269 97.4617 160.248 88.7556 160.234C80.0117 160.22 73.0043 153.302 73.009 144.691ZM77.9968 144.753C78.0062 150.864 82.8147 155.768 88.7981 155.768C94.7201 155.768 99.6182 150.774 99.6182 144.724C99.6182 138.665 94.7437 133.652 88.8311 133.643C82.7863 133.633 77.9873 138.556 77.9921 144.753H77.9968Z" fill="#FEFEFE"/>
<path d="M228.978 144.861C228.945 153.387 221.792 160.286 213.043 160.229C204.351 160.172 197.32 153.151 197.377 144.578C197.433 136.067 204.507 129.201 213.199 129.215C222.014 129.229 229.007 136.166 228.974 144.861H228.978ZM223.995 144.71C223.995 138.604 219.173 133.657 213.222 133.643C207.215 133.633 202.327 138.641 202.369 144.767C202.412 150.869 207.248 155.773 213.218 155.768C219.159 155.768 224 150.793 223.995 144.705V144.71Z" fill="#FEFEFE"/>
<path d="M235.731 128.691C243.14 136.024 250.6 142.715 257.565 149.968C257.857 149.525 257.716 149.062 257.716 148.633C257.725 142.829 257.758 137.024 257.692 131.224C257.678 130.082 258.027 129.856 259.089 129.88C262.142 129.946 262.142 129.899 262.142 133.006C262.142 141.631 262.142 150.251 262.137 158.875C262.137 159.309 262.255 159.767 261.93 160.38C254.715 153.283 247.259 146.554 240.176 139.221C240.176 139.66 240.176 140.051 240.176 140.442C240.176 146.37 240.157 152.297 240.195 158.229C240.2 159.187 239.978 159.503 238.968 159.489C235.726 159.446 235.726 159.489 235.726 156.277V128.696L235.731 128.691Z" fill="#FEFEFE"/>
<path d="M376.483 139.198C376.483 145.521 376.441 151.736 376.521 157.947C376.54 159.253 376.157 159.522 374.935 159.484C372.052 159.394 372.047 159.456 372.047 156.532V130.408C372.047 129.965 372.047 129.521 372.047 128.696C379.461 135.996 386.94 142.739 393.957 150.029C394.226 149.534 394.103 149.077 394.103 148.638C394.112 142.833 394.145 137.024 394.079 131.219C394.065 130.083 394.4 129.847 395.471 129.875C398.463 129.941 398.468 129.894 398.468 132.95V160.578C391.045 153.269 383.585 146.545 376.488 139.193L376.483 139.198Z" fill="#FEFEFE"/>
<path d="M472.307 159.451C470.514 159.451 468.957 159.451 467.4 159.451C466.833 159.451 466.654 158.989 466.39 158.635C463.587 154.882 460.793 151.128 457.995 147.37C457.849 147.172 457.702 146.964 457.547 146.776C457.367 146.563 457.231 146.224 456.881 146.332C456.509 146.45 456.631 146.813 456.631 147.082C456.622 149.402 456.627 151.722 456.627 154.042C456.627 155.532 456.598 157.027 456.636 158.517C456.655 159.196 456.457 159.442 455.73 159.47C452.054 159.607 452.059 159.625 452.059 155.924C452.059 147.676 452.078 139.434 452.035 131.186C452.031 130.163 452.281 129.823 453.328 129.875C456.268 130.021 459.217 129.691 462.152 130.097C466.588 130.705 469.122 133.714 468.995 138.203C468.867 142.621 467.319 144.616 463.021 145.837C461.869 146.167 462.733 146.639 462.959 146.941C465.79 150.722 468.65 154.481 471.495 158.253C471.736 158.569 471.944 158.909 472.312 159.446L472.307 159.451ZM456.905 138.25C456.905 139.41 456.924 140.575 456.896 141.735C456.881 142.31 457.061 142.598 457.674 142.536C458.868 142.423 460.085 142.418 461.26 142.187C463.299 141.791 464.087 140.674 464.111 138.448C464.134 136.269 463.205 134.907 461.35 134.393C460.133 134.058 458.887 134.086 457.646 134.048C457.004 134.03 456.891 134.35 456.9 134.888C456.924 136.005 456.905 137.128 456.905 138.245V138.25Z" fill="#FEFEFE"/>
<path d="M155.474 140.9C155.323 143.838 155.743 147.45 155.262 151.043C154.601 156.009 151.963 158.847 147.032 159.875C144.229 160.46 141.417 160.389 138.647 159.663C134.329 158.527 131.649 155.32 131.352 150.675C130.927 144.012 131.262 137.33 131.168 130.658C131.158 130.04 131.418 129.842 131.984 129.908C132.064 129.918 132.149 129.908 132.234 129.908C133.428 129.969 134.971 129.413 135.726 130.111C136.504 130.823 135.957 132.384 135.967 133.572C136 138.217 135.971 142.857 135.985 147.502C135.985 148.369 135.981 149.256 136.127 150.105C136.816 154.108 139.284 155.924 143.814 155.82C147.74 155.73 150.052 153.641 150.538 149.742C150.906 146.766 150.661 143.781 150.699 140.801C150.741 137.566 150.736 134.336 150.689 131.101C150.675 130.233 150.812 129.771 151.822 129.899C153.001 130.05 154.582 129.385 155.266 130.167C155.851 130.837 155.465 132.374 155.469 133.525C155.483 135.765 155.469 138 155.469 140.905L155.474 140.9Z" fill="#FEFEFE"/>
<path d="M428.819 144.564C428.819 140.047 428.837 135.529 428.8 131.012C428.79 130.168 428.984 129.875 429.885 129.885C434.656 129.932 439.431 129.927 444.202 129.885C445.075 129.875 445.315 130.125 445.311 130.993C445.301 134.011 445.339 134.011 442.376 134.011C439.804 134.011 437.227 134.034 434.656 133.997C433.858 133.982 433.547 134.209 433.575 135.043C433.627 136.783 433.632 138.528 433.575 140.263C433.547 141.126 433.802 141.4 434.684 141.386C437.836 141.334 440.993 141.405 444.145 141.343C445.098 141.324 445.325 141.622 445.315 142.536C445.287 145.583 445.325 145.583 442.3 145.583C439.728 145.583 437.152 145.606 434.58 145.568C433.825 145.559 433.566 145.79 433.58 146.554C433.618 149.081 433.618 151.609 433.58 154.141C433.57 154.905 433.825 155.141 434.58 155.132C437.775 155.099 440.969 155.141 444.164 155.103C444.999 155.094 445.311 155.297 445.311 156.197C445.32 159.46 445.353 159.46 442.121 159.46C438.053 159.46 433.986 159.437 429.923 159.479C429.059 159.489 428.79 159.258 428.8 158.371C428.842 153.769 428.819 149.171 428.819 144.569V144.564Z" fill="#FEFEFE"/>
<path d="M348.821 144.569C348.821 140.094 348.845 135.614 348.802 131.139C348.793 130.219 348.958 129.861 349.996 129.875C354.724 129.936 359.457 129.922 364.186 129.885C365.04 129.875 365.313 130.083 365.309 130.974C365.294 134.011 365.332 134.011 362.274 134.011C359.745 134.011 357.211 134.044 354.682 133.992C353.8 133.973 353.54 134.27 353.568 135.128C353.625 136.868 353.625 138.613 353.568 140.348C353.54 141.178 353.823 141.395 354.63 141.386C357.782 141.343 360.939 141.395 364.091 141.348C364.955 141.334 365.328 141.475 365.318 142.475C365.285 145.578 365.337 145.578 362.241 145.578C359.712 145.578 357.178 145.606 354.649 145.564C353.87 145.55 353.549 145.719 353.568 146.578C353.625 149.063 353.625 151.552 353.568 154.038C353.545 154.948 353.894 155.136 354.72 155.127C357.872 155.089 361.029 155.136 364.181 155.094C365.035 155.08 365.313 155.311 365.313 156.197C365.313 159.451 365.346 159.451 362.123 159.451C358.056 159.451 353.988 159.427 349.925 159.47C349.067 159.479 348.798 159.253 348.802 158.371C348.845 153.769 348.821 149.171 348.821 144.569Z" fill="#FEFEFE"/>
<path d="M341.568 137C337.996 134.185 334.146 133.02 329.809 133.893C327.492 134.36 325.572 135.538 324.062 137.359C320.834 141.258 320.73 147.86 323.849 151.84C326.03 154.622 328.936 155.862 332.442 155.768C335.83 155.674 338.756 154.344 341.568 152.066C341.568 153.934 341.559 155.49 341.568 157.051C341.568 157.522 341.233 157.687 340.917 157.871C335.675 160.955 330.229 161.092 324.855 158.479C319.64 155.947 316.951 151.5 316.672 145.752C316.271 137.476 321.075 131.172 328.889 129.54C333.226 128.635 337.289 129.418 341.068 131.728C341.625 132.068 341.908 132.426 341.833 133.115C341.701 134.336 341.658 135.562 341.559 136.995L341.568 137Z" fill="#FEFEFE"/>
<path d="M58.0551 160.229C53.6006 160.219 50.4862 158.352 49.0894 154.999C48.6789 154.009 48.6128 153.259 49.8728 152.948C49.9907 152.92 50.0945 152.84 50.2078 152.793C50.8873 152.486 51.5904 151.911 52.2416 151.958C52.9022 152.01 52.9022 153.057 53.308 153.613C54.9502 155.848 58.8951 156.551 61.1695 154.962C63.1231 153.599 63.4204 150.737 61.7829 148.959C60.8958 147.997 59.7727 147.37 58.6025 146.813C56.5781 145.851 54.5727 144.856 52.7559 143.527C49.9152 141.452 48.8488 138.448 49.7406 135.1C50.5664 131.997 53.2136 129.8 56.5404 129.371C58.8101 129.073 61.0138 129.239 63.1231 130.153C64.6189 130.799 65.7656 131.841 66.5253 133.299C66.799 133.827 66.8603 134.213 66.1903 134.454C65.9213 134.548 65.6807 134.727 65.4211 134.859C64.7558 135.199 64.114 135.722 63.4156 135.817C62.5804 135.935 62.3728 134.902 61.8207 134.454C60.3532 133.266 57.9702 132.987 56.3139 133.902C54.3745 134.973 53.9262 137.491 55.3843 139.24C56.3894 140.443 57.7342 141.192 59.131 141.853C60.7826 142.631 62.4436 143.385 63.9583 144.413C67.2803 146.667 68.3845 149.463 67.5351 153.439C66.8132 156.815 64.199 159.319 60.6504 159.96C59.7586 160.12 58.8526 160.3 58.0504 160.229H58.0551Z" fill="#FEFEFE"/>
<path d="M277.884 160.234C273.387 160.234 270.169 158.244 268.857 154.717C268.541 153.868 268.536 153.297 269.541 153.047C269.777 152.986 269.994 152.849 270.221 152.746C270.862 152.458 271.528 151.897 272.141 151.953C272.764 152.01 272.755 153.005 273.132 153.538C274.694 155.73 278.445 156.546 280.758 155.155C283.027 153.792 283.41 150.774 281.555 148.865C280.55 147.832 279.3 147.186 278.016 146.592C276.171 145.734 274.387 144.767 272.717 143.597C269.796 141.551 268.796 138.745 269.584 135.336C270.358 131.974 272.693 130.144 275.959 129.46C278.28 128.975 280.588 129.177 282.801 130.073C284.311 130.682 285.472 131.691 286.307 133.11C286.755 133.874 286.623 134.322 285.807 134.61C285.613 134.68 285.434 134.794 285.25 134.888C284.585 135.223 283.938 135.751 283.244 135.836C282.489 135.925 282.277 134.949 281.753 134.506C279.243 132.389 275.232 133.299 274.491 136.175C274.166 137.434 274.567 138.462 275.383 139.377C276.398 140.513 277.7 141.24 279.059 141.886C280.819 142.72 282.574 143.56 284.198 144.658C287.104 146.634 288.048 149.393 287.539 152.769C287.053 156.004 285.269 158.225 282.272 159.465C280.88 160.04 279.394 160.229 277.889 160.243L277.884 160.234Z" fill="#FEFEFE"/>
<path d="M168.135 146.705C168.135 142.852 168.106 138.995 168.153 135.142C168.163 134.223 167.918 133.902 166.969 133.935C165.063 134.001 163.152 133.935 161.245 133.968C160.537 133.982 160.226 133.836 160.212 133.025C160.146 129.903 160.113 129.903 163.265 129.903C168.701 129.903 174.137 129.922 179.568 129.885C180.408 129.88 180.705 130.059 180.705 130.964C180.691 133.954 180.734 133.954 177.747 133.954C176.543 133.954 175.335 134.015 174.137 133.935C173.174 133.874 172.872 134.157 172.882 135.161C172.924 142.744 172.877 150.331 172.934 157.914C172.943 159.149 172.674 159.531 171.381 159.489C168.13 159.385 168.13 159.456 168.13 156.15C168.13 152.844 168.13 149.85 168.13 146.7L168.135 146.705Z" fill="#FEFEFE"/>
<path d="M416.088 146.828C416.088 150.6 416.054 154.372 416.111 158.14C416.125 159.126 415.932 159.592 414.842 159.47C413.738 159.343 412.298 159.913 411.591 159.262C410.807 158.541 411.34 157.07 411.336 155.933C411.307 149.053 411.293 142.173 411.35 135.293C411.359 134.157 411.005 133.888 409.944 133.935C408.08 134.015 406.211 133.935 404.342 133.968C403.649 133.982 403.422 133.766 403.399 133.049C403.3 129.903 403.276 129.904 406.428 129.904C411.822 129.904 417.215 129.937 422.609 129.875C423.675 129.866 423.916 130.186 423.892 131.196C423.836 133.954 423.878 133.954 421.066 133.954C419.905 133.954 418.73 134.058 417.583 133.926C416.243 133.77 416.031 134.317 416.054 135.51C416.13 139.278 416.083 143.05 416.083 146.823L416.088 146.828Z" fill="#FEFEFE"/>
<path d="M111.368 144.616C111.368 140.056 111.387 135.496 111.349 130.941C111.344 130.149 111.533 129.828 112.378 129.889C113.567 129.979 115.119 129.522 115.87 130.116C116.667 130.748 116.11 132.365 116.12 133.549C116.148 140.306 116.153 147.059 116.11 153.816C116.105 154.825 116.332 155.174 117.394 155.146C120.131 155.07 122.872 155.155 125.609 155.103C126.529 155.084 126.911 155.259 126.897 156.31C126.85 159.46 126.897 159.465 123.722 159.465C119.947 159.465 116.172 159.442 112.397 159.484C111.575 159.493 111.349 159.243 111.354 158.428C111.391 153.825 111.373 149.228 111.373 144.625L111.368 144.616Z" fill="#FEFEFE"/>
<path d="M185.698 144.71C185.698 140.155 185.726 135.6 185.674 131.04C185.665 130.092 185.943 129.795 186.868 129.885C187.689 129.965 188.534 129.979 189.35 129.885C190.403 129.762 190.558 130.234 190.554 131.153C190.525 140.183 190.521 149.214 190.558 158.239C190.558 159.234 190.28 159.574 189.303 159.465C188.161 159.342 186.68 159.937 185.943 159.234C185.193 158.522 185.722 157.037 185.707 155.891C185.674 152.165 185.693 148.435 185.693 144.705L185.698 144.71Z" fill="#FEFEFE"/>
<path d="M77.9966 144.753C77.9872 138.556 82.7909 133.633 88.8356 133.643C94.7482 133.652 99.6275 138.665 99.6227 144.724C99.6227 150.774 94.7247 155.768 88.8026 155.768C82.8145 155.768 78.006 150.864 78.0013 144.753H77.9966Z" fill="#F5BA1D"/>
<path d="M223.995 144.71C223.995 150.798 219.159 155.768 213.218 155.773C207.248 155.773 202.412 150.873 202.369 144.772C202.327 138.646 207.211 133.638 213.222 133.648C219.173 133.657 223.991 138.608 223.995 144.715V144.71Z" fill="#F5BA1D"/>
<path d="M456.904 138.25C456.904 137.132 456.918 136.01 456.9 134.893C456.89 134.355 457.003 134.03 457.645 134.053C458.891 134.096 460.137 134.063 461.349 134.397C463.204 134.911 464.133 136.269 464.11 138.453C464.086 140.678 463.293 141.791 461.26 142.192C460.085 142.423 458.872 142.423 457.673 142.541C457.06 142.602 456.881 142.31 456.895 141.739C456.923 140.579 456.904 139.419 456.904 138.255V138.25Z" fill="#F5BA1D"/>
</g>
<defs>
<clipPath id="clip0_10_1919">
<rect width="521" height="168" fill="white" transform="translate(0 0.5)"/>
</clipPath>
</defs>
</svg>
